<?xml version="1.0" encoding="UTF-8"?>
<svg xmlns="http://www.w3.org/2000/svg" viewBox="0 0 1043.64 1043.64">
  <defs>
    <style>
      .cls-1 {
        fill: #7e1a72;
      }

      .cls-1, .cls-2, .cls-3, .cls-4, .cls-5, .cls-6, .cls-7, .cls-8, .cls-9, .cls-10, .cls-11, .cls-12, .cls-13 {
        stroke-width: 0px;
      }

      .cls-2, .cls-7 {
        fill: #eef8cf;
      }

      .cls-3 {
        fill: #300d06;
      }

      .cls-3, .cls-4, .cls-6, .cls-7, .cls-8, .cls-9, .cls-10, .cls-11, .cls-12 {
        fill-rule: evenodd;
      }

      .cls-14 {
        mix-blend-mode: overlay;
      }

      .cls-4 {
        fill: #fa8333;
      }

      .cls-5 {
        fill: #1b796f;
      }

      .cls-6 {
        fill: #dd3e29;
      }

      .cls-8 {
        fill: #feb658;
      }

      .cls-9 {
        fill: #c3bcf5;
      }

      .cls-10 {
        fill: #eb652f;
      }

      .cls-15 {
        fill: #ff7d39;
      }

      .cls-16 {
        opacity: .31;
      }

      .cls-11 {
        fill: #f2ebf3;
      }

      .cls-17 {
        font-family: MoreSugarRegular, 'More Sugar';
        font-size: 207.86px;
      }

      .cls-18 {
        isolation: isolate;
      }

      .cls-12 {
        fill: #e79a7a;
      }

      .cls-13 {
        fill: #e96531;
      }

      .cls-19 {
        fill: #9cbc7a;
      }
    </style>
  </defs>
  <g class="cls-18">
    <g id="TOPI_DINO" data-name="TOPI DINO">
      <g id="N_Image" data-name="N Image">
        <path class="cls-13" d="M392.43,417.09c.68-2.32.25-4.71.33-7.06.33-9.98.55-19.98,1.87-29.88.87-6.51,2.76-12.79,7.28-17.84,7.2-8.04,16.07-10.61,26.44-7.48,6.79,2.05,12.15,6.41,16.8,11.54,5.43,5.98,10.11,12.59,14.94,19.05,16.13,21.54,32.48,42.92,48.95,64.19.36.47.75.92,1.17,1.44.5-.46.33-1.02.34-1.49.42-14.52.78-29.05,1.26-43.57.35-10.52.7-21.03,1.34-31.53.45-7.37,2.08-14.61,5.18-21.32,4.43-9.59,13.15-14.33,23-13.74,10.7.64,19.16,8.03,21.7,17.94,2.05,7.99,2.03,16.08,1.81,24.22-.27,9.93-.36,19.86-.57,29.78-.34,15.66-.68,31.33-1.09,46.99-.22,8.31-.36,16.63-.98,24.91-.68,9.01-2.55,17.76-8.18,25.23-6.28,8.32-14.83,11.47-24.9,10.4-11.58-1.23-21.42-6.73-30.59-13.58-11.93-8.92-21.79-19.89-30.98-31.5-9.81-12.39-18.49-25.6-27.73-38.4-.47-.66-.95-1.31-1.68-2.32-.22,6.49-.4,12.5-.63,18.51-.66,17.26-1.21,34.53-2.1,51.79-.3,5.76-2.01,11.29-5.56,16.05-2.41,3.23-5.43,5.5-9.45,6.34-.47.1-1.12-.09-1.42.53h-3.95c-2.07-.99-4.41-1.23-6.36-2.62-5.3-3.79-8.17-9.11-9.77-15.2-1.69-6.44-1.92-13.11-2.62-19.7-1.91-17.95-3.12-35.95-3.55-54.01-.05-2.17.37-4.39-.32-6.53v-11.13ZM398.58,422.91c-.3,14.48.52,28.92,1.44,43.36.29,4.59.69,9.17,1.13,13.74.64,6.53,1.46,13.05,2.03,19.59.52,6.01,1.97,11.63,5.7,16.52,4.43,5.82,12.18,5.78,16.42-.14,2.24-3.13,3.58-6.65,4.11-10.41.83-5.86.64-11.8,1.02-17.69.38-5.96.53-11.94.74-17.91.38-10.57.78-21.14,1.07-31.71.15-5.62.09-11.25.14-16.88,0-.4-.19-.91.2-1.17.46-.31.75.21,1.06.43,2.75,1.93,5.43,3.95,7.41,6.72,6.84,9.58,13.63,19.21,20.48,28.79,9.79,13.69,20.15,26.9,32.73,38.19,7.7,6.91,16.02,12.9,25.82,16.55,5.61,2.09,11.39,3.27,17.38,1.95,8.22-1.81,12.94-7.43,15.91-14.88,2.63-6.6,3.19-13.57,3.49-20.56.31-7.46.57-14.93.72-22.4.2-9.68.37-19.36.72-29.04.22-5.91.02-11.84.34-17.75.32-6.09.08-12.19.35-18.29.27-6.21.17-12.45.15-18.67-.01-4.86-.42-9.7-2.22-14.26-2.51-6.35-7.08-10.58-13.9-11.61-7.14-1.08-13.25,1.11-17.64,7.14-2.85,3.92-3.9,8.55-5.07,13.12-1.96,7.72-1.61,15.65-2.09,23.5-.41,6.56-.54,13.13-.74,19.7-.27,8.72-.49,17.45-.73,26.17-.16,5.68-.27,11.36-.47,17.03-.21,6.01-.26,5.97-4.91,7.81-.95.37-1.48.26-2.11-.56-7.25-9.44-14.58-18.81-21.79-28.27-13.66-17.93-27.26-35.9-40.86-53.88-4.17-5.51-8.65-10.68-14.62-14.38-7.58-4.71-15.96-4.7-22.51.25-5.78,4.37-8.16,10.65-9.11,17.49-1.23,8.76-1.38,17.62-1.74,26.44-.22,5.32-.04,10.65-.04,15.98Z"/>
        <path class="cls-1" d="M398.58,422.91c0-5.33-.18-10.66.04-15.98.37-8.83.51-17.68,1.74-26.44.96-6.84,3.33-13.13,9.11-17.49,6.55-4.95,14.93-4.95,22.51-.25,5.97,3.7,10.44,8.87,14.62,14.38,13.6,17.97,27.2,35.94,40.86,53.88,7.21,9.46,14.54,18.83,21.79,28.27.63.82,1.16.93,2.11.56,4.65-1.83,4.69-1.8,4.91-7.81.2-5.68.31-11.35.47-17.03.24-8.72.46-17.45.73-26.17.2-6.57.34-13.14.74-19.7.48-7.85.13-15.79,2.09-23.5,1.16-4.57,2.21-9.21,5.07-13.12,4.39-6.03,10.5-8.22,17.64-7.14,6.82,1.03,11.39,5.27,13.9,11.61,1.8,4.56,2.2,9.4,2.22,14.26.02,6.22.12,12.46-.15,18.67-.27,6.1-.03,12.21-.35,18.29-.31,5.92-.12,11.84-.34,17.75-.35,9.68-.52,19.36-.72,29.04-.15,7.47-.4,14.93-.72,22.4-.29,6.99-.85,13.95-3.49,20.56-2.97,7.46-7.69,13.08-15.91,14.88-5.99,1.32-11.77.14-17.38-1.95-9.79-3.65-18.11-9.64-25.82-16.55-12.59-11.29-22.94-24.51-32.73-38.19-6.85-9.58-13.64-19.21-20.48-28.79-1.97-2.77-4.66-4.79-7.41-6.72-.31-.22-.6-.74-1.06-.43-.39.27-.2.77-.2,1.17-.05,5.63.02,11.26-.14,16.88-.29,10.57-.69,21.14-1.07,31.71-.21,5.97-.36,11.95-.74,17.91-.38,5.9-.19,11.83-1.02,17.69-.54,3.76-1.87,7.28-4.11,10.41-4.24,5.92-11.99,5.96-16.42.14-3.73-4.9-5.18-10.51-5.7-16.52-.57-6.54-1.39-13.05-2.03-19.59-.45-4.57-.84-9.16-1.13-13.74-.92-14.44-1.74-28.88-1.44-43.36Z"/>
      </g>
      <g id="Group_3" data-name="Group 3">
        <g id="Shape_5" data-name="Shape 5">
          <path class="cls-7" d="M412.34,361.71c-7.48.49-13.87,1.95-13.87,1.95,0,0-1.82,2.13-3.41,7.29-.86,4.35.49,5.83.49,5.83,0,0,2.81-.77,5.6-4.13,2.98-4.56,4.14-8.02,4.14-8.02,0,0,.61,7.78,1.22,9.97.61,2.19.73,2.43.73,2.43,0,0,3.28-2.67,5.6-5.59,2.31-2.92,4.87-6.81,4.87-6.81,0,0,.43,5.47,1.22,7.78.79,2.31,2.68,4.38,2.68,4.38,0,0,3.41-2.98,5.84-7.78,2.43-4.8,2.68-6.56,2.68-6.56,0,0-10.28-1.22-17.76-.73ZM449.82,363.17c-.85-.18-15.82-2.31-16.55-2.43-.73-.12-3.16,2.67-3.16,2.67,0,0,.49,6.75,1.7,10.45,1.22,3.71,1.95,6.44,2.68,6.32.73-.12,3.77-3.46,5.35-6.08,1.58-2.61,3.89-7.05,3.89-7.05,0,0,1.28,8.51,2.19,12.4.91,3.89.55,4.13,1.22,3.89.67-.24,5.11-3.83,7.06-6.32,1.95-2.49,2.43-3.89,2.43-3.89,0,0,2.07,8.08,2.68,11.43.61,3.34,2.01,5.59,2.19,5.59s4.32-3.77,5.6-4.86c1.28-1.09,3.65-4.86,3.65-4.86,0,0,2.92,6.08,3.41,9.24.49,3.16.85,5.77,1.46,5.83.61.06,2.31-.73,3.16-1.7s5.11-6.56,5.11-6.56c0,0,3.59,6.81,4.14,9.24.55,2.43.49,3.22,1.22,2.67s5.47-7.29,6.57-8.51c1.09-1.22,1.7-3.4,1.7-3.4,0,0-21.47-10.64-22.63-11.67-1.16-1.03-24.21-12.22-25.06-12.4ZM507.73,381.65s-.97-1.28-2.43-1.22c-1.46.06-2.92.43-3.65.97-.73.55-1.7,5.35-1.7,5.35,0,0,.18,4.62,1.46,9.97,1.28,5.35,1.7,6.81,1.7,6.81,0,0,3.59-1.7,5.11-4.86s1.46-4.13,1.46-4.13l-1.95-12.89Z"/>
        </g>
        <g id="Shape_6" data-name="Shape 6">
          <path class="cls-11" d="M408.69,373.63c-.24-.49-2.27-10.29-1.22-10.45,1.05-.16-1.95,0-1.95,0,0,0-.08,3.65.24,6.81s1.22,7.05,1.22,7.05l4.62-4.62s-2.68,1.7-2.92,1.22ZM395.36,369.57c-.98,3.3-.61,7.7-.61,7.7l2.85-1.54s-1.46.07-1.29-1.54c.17-1.61,3.24-10.33,4.85-10.55,1.61-.22-2.2-.22-2.2-.22,0,0-2.62,2.86-3.6,6.16ZM421.59,373.87c-.24-1.22-2.6-10.45-.73-10.7,1.87-.24-3.16-.24-3.16-.24,0,0,0,3.48,1.22,8.27s2.43,5.59,2.43,5.59l2.19-2.19s-1.7.49-1.95-.73ZM434.73,376.79c-.32-1.86-3.41-11.18-2.43-11.67.97-.49,3.16-.73,3.16-.73l-5.35-.97s.24,3.4,1.46,9c1.22,5.59,2.92,7.54,2.92,7.54l2.43-2.19s-1.87.89-2.19-.97ZM447.38,380.19c-.16-1.38-3.16-11.83-1.22-11.91,1.95-.08,1.22-.97,1.22-.97l-3.89-.73s1.46,6.81,2.19,11.67c.73,4.86,1.46,5.11,1.46,5.11l2.92-1.94s-2.51.16-2.68-1.22ZM460.77,383.84c-1.14-5.43-2.6-10.29-2.19-10.94.41-.65-1.92-1.36-2.19-.49,0,0,1.54,6.73,2.68,11.18,1.14,4.46,2.19,6.4,2.92,6.32.73-.08,3.41-2.67,3.41-2.67,0,0-3.49,2.03-4.62-3.4ZM476.83,392.59c-.24-.81-4.14-10.7-4.14-11.18s.73-2.43.73-2.43l-3.65-1.7.73,2.43s3,5.19,3.41,9.24,1.95,6.81,1.95,6.81l2.43-1.7s-1.22-.65-1.46-1.46ZM489.97,396.48c-.89-.89-4.7-9.16-4.62-9.97.08-.81-1.7-1.22-1.7-1.22,0,0,3.24,7.54,3.89,10.45.65,2.92,1.7,3.48,2.43,2.92.73-.57,2.68-3.4,2.68-3.4,0,0-1.78,2.11-2.68,1.22ZM502.86,398.91c-.32-2.11-2.68-11.51-1.46-12.16,1.22-.65-1.7,0-1.7,0,0,0,.24,3.73,1.22,8.75.97,5.02,2.68,8.27,2.68,8.27l1.7-1.46s-2.11-1.3-2.43-3.4Z"/>
        </g>
        <g id="L">
          <path class="cls-3" d="M417.7,364.06c0-.09,0-.16,0-.16,0,.07,0,.12,0,.16ZM479.99,392.1c-1.14.81-3.33,3-3.65,2.19-.31-.78-3.65-11.89-5.64-14.14.03-.13.04-.2.04-.2,0,0-.04.06-.1.14-.05-.05-.1-.1-.14-.14,0,0-.27.27-.32.77-.98,1.34-3.04,4.04-4.31,5.06-1.7,1.38-3.6,4.18-4.14,3.4-.05-.08-.13-.26-.23-.52-2.01-3.45-3.24-11.23-3.91-15.04-.15-.86-.45-.82-.72-.67,0-.04-.01-.06-.01-.06,0,0-.04.05-.09.13-.17.11-.31.21-.39.12,0,0,.02.12.06.32-.88,1.17-2.95,3.89-4.2,5.27-1.62,1.78-4.3,4.62-5.11,3.65-.74-.89-2.98-13.2-3.35-15.26-.02-.2-.05-.3-.05-.3,0,0-3.57,6.16-5.6,8.75s-2.84,4.13-3.65,3.4c-.81-.73-4.33-11.2-4.38-14.59,0,0-.17.09-.37.34.08-.21.13-.34.13-.34,0,0-.86-.12-1.46.73-.78,1.25-1.66,4.01-2.19,4.86-1.05,1.7-3.41,6.08-4.38,6.08-.76,0-3.2-7.44-3.16-12.64,0-.64-.22-.18-.46.29-.02-.03-.03-.05-.03-.05,0,0-.18.19-.46.51,0-.03-.01-.07-.02-.11,0,.04,0,.07,0,.12-.87.99-2.75,3.19-3.91,5.07-1.54,2.51-5.43,6.32-6.08,6.81-.63.47-2.32-9.62-1.99-12.62.03-.17.04-.27.04-.27-.08-.01-.16,0-.23.05l-.99.2s-.65,3.89-3.65,8.27c-3,4.38-5.11,4.13-5.11,4.13,0,0-2.35-5.02,3.41-12.4h-.97s-2.51,3.89-3.89,9c-.08,2.66.49,4.86.49,4.86,0,0,1.78.05,5.84-3.4,2.28-2.56,3.56-5.29,4.27-7.35.13,1.98.35,4.83.6,6.38.41,2.51,1.22,5.02,1.95,5.11.73.08,2.19-2.27,5.35-5.83,1.78-2,3.95-4.54,5-6.21.14,1.76.4,4.28.84,5.97.73,2.84,2.27,6.08,2.92,6.08s2.43-2.27,4.38-5.35c1.22-1.93,2.44-4.68,3.18-6.47.38,2.58,2.37,8.57,3.15,10.6,1.62,4.21,2.51,4.13,2.92,3.89.41-.24,2.43-1.13,5.84-6.56,1.14-1.82,1.81-3.23,2.21-4.31.1,2.11.7,5.07.96,6.99.49,3.65,1.5,7.98,2.68,7.78,1.51-.25,3.22-1.76,6.33-5.11,2.14-2.31,3.05-3.96,3.42-5.03.4,1.99,1.17,5.91,1.69,8.92.73,4.21,2.03,7.13,2.92,7.54,1.19.54,4.22-2.59,6.57-5.11,1.31-1.4,2.07-3.06,2.48-4.25.55,1.6,2.28,4.8,2.63,6.68.73,3.97,2.03,7.94,2.43,8.27.41.32,4.7-2.48,6.33-4.38,2.97-3.45,2.19-5.11,2.19-5.11,0,0-2.76,4.3-3.89,5.11ZM488.75,397.7c-.57-.81-3.53-10.2-4.87-10.94,0,0,3.08,10.62,3.89,12.16.81,1.54,2.03,1.3,4.14-1.7,2.11-3,4.38-7.05,4.38-7.05,0,0-3.65,4.86-4.87,6.08s-2.11,2.27-2.68,1.46ZM499.97,388.92c-.03-.46-.03-.71-.03-.71,0,.2,0,.44.03.71ZM508.7,395.51s-.41,2.51-1.95,4.38c-1.54,1.86-3,3.32-3.41,2.92-.38-.38-3.05-10.19-3.37-13.88.07,1.24.29,4.09.94,8.29.89,5.75,2.43,7.29,2.43,7.29,0,0,1.62-1.38,3.65-3.65,2.03-2.27,2.68-5.35,2.68-5.35h-.97Z"/>
        </g>
      </g>
      <g id="Group_2" data-name="Group 2">
        <g id="Shape_3" data-name="Shape 3">
          <path class="cls-4" d="M497.51,320.14c-3.16,1.94-6.08,7.29-6.08,7.29,0,0-.12,1.64.24,1.46.36-.18,4.44-.55,5.35-.73.91-.18,11.98.06,12.41,0,.43-.06,1.22-1.94,1.22-1.94,0,0-3.65-3.46-5.84-5.35s-4.14-2.67-7.3-.73ZM536.68,316.74c-.67-.91-3.59-1.76-10.95,1.22-7.36,2.98-11.44,6.81-11.44,6.81,0,0,8.7,4.56,11.92,4.86,3.22.3,5.47,1.64,8.52,2.19,3.04.55,4.38,2.37,5.6,2.92,1.22.55,2.8-1.34,2.92-1.46.12-.12-.55-2.98-1.7-7.05-1.16-4.07-4.2-8.57-4.87-9.48ZM578.78,341.53c-1.22-.79-3.22-.12-9.49-.97-6.27-.85-14.84-.73-14.84-.73l-.97.97,21.9,27.72.97-.73s3.04-18.23,3.16-19.45c.12-1.22.49-6.02-.73-6.81ZM597.52,391.86c1.16-1.88,1.52-4.98-1.95-8.51-3.47-3.53-16.79-9-16.79-9l-.97.73,4.62,12.16,1.7,13.61s1.46,8.33,1.46,8.02,10.77-15.13,11.92-17.02ZM597.03,431.98c.12-1.03-1.76-2.98-4.62-4.38-2.86-1.4-6.81-4.86-6.81-4.86l-.73,1.7.24,17.75s1.64-.3,4.38-2.19c2.74-1.88,7.42-6.99,7.54-8.02ZM603.6,463.1c-.55-.85-4.5-1.34-8.76-2.92-4.26-1.58-7.3-4.13-7.3-4.13,0,0-.49-.18-.24,3.4.23,3.45,4.52,17.13,4.85,18.17.16-.24,1.08-1.15,5.13-4.55,6.08-5.11,6.87-9.12,6.33-9.97ZM592.16,477.68s0-.03-.02-.07c-.08.12.02.07.02.07Z"/>
        </g>
        <g id="Shape_4" data-name="Shape 4">
          <path class="cls-8" d="M526.95,317.47c-8.15,2.55-11.68,7.05-11.68,7.05l1.46.24s1.09-.79,3.16-2.43c2.07-1.64,10.89-4.32,14.11-4.13,3.22.18,5.6,3.89,5.6,3.89l-2.92-5.35s-1.58-1.82-9.73.73ZM502.62,319.65c-1.52-1.03-2.07-1.22-5.84,1.46-3.77,2.67-5.11,6.56-5.11,6.56.04-.3,3.16,0,3.16,0,0,0,1.76-4.5,3.89-6.32,2.13-1.82,6.81.97,6.81.97,0,0-1.4-1.64-2.92-2.67ZM578.54,350.53s1.34-6.26.97-7.54c-.36-1.28-1.34-1.46-6.57-2.43-5.23-.97-18.01-.73-18.01-.73l-.24.49,4.87,4.62s2.19,1.58,1.46,0c-.73-1.58,8.58-2.43,13.14-1.7,4.56.73,4.38,7.29,4.38,7.29ZM595.08,387c1.16,2.25.97,6.32.97,6.32,0,0,3.16-3.89,1.95-6.81-1.22-2.92-4.93-5.17-10.95-8.75-6.02-3.59-8.76-3.65-8.76-3.65l3.16,7.29s.79-2.19,4.62-.73c3.83,1.46,7.85,4.07,9,6.32ZM595.08,433.19c-.08.89-1.46,2.67-1.46,2.67,0,0,3.16-2.43,3.16-4.38s-.97-2.19-.97-2.19c0,0-5.27-1.78-8.03-4.62-2.76-2.84-2.92-2.67-2.92-2.67l.73,4.86s5.43,3.16,7.06,3.89c1.62.73,2.51,1.54,2.43,2.43ZM603.84,463.58c-.97-1.3-3.65-1.7-3.65-1.7,0,0-8.35-3.08-9.98-4.13-1.62-1.05-3.16-1.7-3.16-1.7l1.7,5.83s-.24-2.84,2.68-1.22c2.92,1.62,8.68,3.32,9.49,4.13.81.81.24,3.89.24,3.89,0,0,3.65-3.81,2.68-5.11Z"/>
        </g>
        <g id="L2">
          <path class="cls-3" d="M498.48,318.44c-3.16,1.86-7.54,9.97-7.54,9.97,3.4-5.21,7.95-9.16,9.73-9,1.78.16,9.49,6.56,9.49,6.56,0,0-.97-1.05-2.92-3.16s-5.6-6.24-8.76-4.38ZM528.9,316.01c-6.49,2.03-15.57,9.48-15.57,9.48,9.63-7.88,21.41-9.97,22.87-8.27,4.38,5.75,6.57,16.29,6.57,16.29,0,0,.73.41.97,0-.81-6.08-4.14-13.78-5.84-16.53-1.7-2.76-3.24-3.08-9-.97ZM573.18,340.08c-9.25-1.3-19.88-.95-19.71,0,.17.95,21.17,1.62,23.6,1.95,2.43.32,1.87,2.67,1.22,6.56-.65,3.89-2.92,19.69-2.92,19.69l1.22,2.19s2.51-18.72,3.41-24.31c.89-5.59-.81-5.27-6.81-6.08ZM597.03,390.4c-.89,3.65-11.44,17.5-11.44,17.5,0,0-.49,1.46,0,1.94,3.16-4.13,11.11-15.07,12.65-18.72,1.54-3.65.97-6-5.84-10.45-6.81-4.46-14.36-6.81-14.36-6.81l.97.97s11.27,5.27,14.36,7.54,4.54,4.38,3.65,8.02ZM597.27,431.98c.73-2.27-1.14-2.67-4.62-4.62-3.49-1.94-7.54-5.59-7.54-5.59.31.42.1,1.32.49,1.7,3.42,3.44,9.73,6.1,10.46,7.05.81,1.05-.32,3.16-3.16,6.08-2.84,2.92-7.54,4.86-7.54,4.86l.24,1.22s1.7-.24,4.62-2.67c2.92-2.43,6.33-5.75,7.06-8.02ZM598,460.66c-5.11-1.7-10.95-5.35-10.95-5.35.64.62-.24.91.49,1.46,5.29,3.98,13.92,6.28,14.84,6.56,1.05.32.32,3.73-2.92,7.29-3.24,3.57-7.79,6.56-7.79,6.56v.97s2.76-.89,6.57-5.11c3.81-4.21,6.49-8.43,6.33-9.72-.16-1.3-1.46-.97-6.57-2.67Z"/>
        </g>
      </g>
      <g id="Group_1" data-name="Group 1">
        <g id="Shape_2" data-name="Shape 2">
          <path class="cls-10" d="M598.49,494.94c-2.55-6.69-11.31-33.55-12.17-44.49-.85-10.94-1.7-34.28-1.95-51.78-.24-17.5-12.04-37.56-19.22-48.14-7.18-10.58-23.36-17.5-23.36-17.5,0,0-.36-3.4-10.22-7.05-9.85-3.65-21.29.85-33.09,2.43-11.8,1.58-26.64-2.8-44.04-5.83-17.4-3.04-30.54.97-42.83,13.86-12.29,12.89-12.65,26.5-12.65,26.5,0,0,7.42-1.7,18.01-1.46,10.58.24,17.15.61,32.36,5.83,15.21,5.23,31.27,17.99,40.64,19.94,9.37,1.95,14.36-3.16,14.36-3.16,0,0,1.46,7.9,3.89,10.21,2.43,2.31,4.87,2.31,6.33,13.61,2.8,14.22,10.46,21.39,11.92,24.31,1.46,2.92,3.89,1.09,6.08,9.24,2.19,8.14-.36,16.9-.49,17.5-.12.61-3.65,4.62-.97,3.65,2.68-.97,6.33-3.65,6.33-3.65,0,0,1.95,23.46,1.46,37.93-.49,14.47-4.38,38.9-4.38,38.9,0,0,10.71-3.77,15.82-5.35,5.11-1.58,9.49-2.67,9.49-3.16s-1.34-1.58,9.98-1.94c11.31-.36,26.04,2.67,26.04,2.67l-3.65-16.78s7.79-4.74,8.52-5.83c.73-1.09.36-3.77-2.19-10.45Z"/>
        </g>
        <g id="Shape_31" data-name="Shape 31" class="cls-16">
          <path class="cls-4" d="M499.1,353.71c.03.13.07.21.11.22-.03-.08-.08-.15-.11-.22ZM547.39,340.56c-9.49-14.1-16.55-18.96-33.58-15.07-17.03,3.89-35.77,2.07-56.45-2.43-20.68-4.5-40.66.17-55.72,28.69,0,0,11.44-17.14,25.06-11.91,13.63,5.23,34.8,18.6,45.75,14.83,10.82-3.72,23.64-7.08,26.65-.95-.39-1.5-.18-10.29,7.41-15.09,1.28-.81,1.94-1.28,2.18-1.46-1.03.82-10.06,8.59-6.56,20.42,3.71,12.52,7.95,15.27,6.08,9-1.87-6.28-4.57-28.48,13.63-30.63,17.51-2.96,21.9,17.02,20.44,28.2-1.46,11.18,10.71,26.26,11.92,21.15,1.22-5.11,2.68-30.63-6.81-44.73Z"/>
        </g>
        <g id="Ellipse_4" data-name="Ellipse 4">
          <path class="cls-6" d="M574.22,406.69c-3.71.06-6.71,3.86-6.71,8.49s3,8.34,6.71,8.28c3.71-.06,6.71-3.86,6.71-8.49s-3-8.34-6.71-8.28ZM569.82,398.42c0,3.76,2.25,6.86,5.03,6.92,2.78.06,5.03-2.93,5.03-6.69s-2.25-6.86-5.03-6.92c-2.78-.06-5.03,2.93-5.03,6.69ZM573.55,383.84c-1.28,0-2.31,1.52-2.31,3.4s1.03,3.4,2.31,3.4,2.31-1.52,2.31-3.4-1.03-3.4-2.31-3.4ZM564.67,375.81c-2.15,0-3.89,2.29-3.89,5.11s1.74,5.11,3.89,5.11,3.89-2.29,3.89-5.11-1.74-5.11-3.89-5.11ZM567.24,373.57c.14,2.56,2.17,4.71,4.52,4.8,2.35.09,4.14-1.91,4-4.48-.14-2.56-2.17-4.71-4.52-4.8-2.35-.09-4.14,1.91-4,4.47ZM563.21,369.25c0-1.75-1.14-3.16-2.55-3.16s-2.55,1.42-2.55,3.16,1.14,3.16,2.55,3.16,2.55-1.41,2.55-3.16ZM565.15,365.36c1.75,0,3.16-1.58,3.16-3.53s-1.42-3.53-3.16-3.53-3.16,1.58-3.16,3.53,1.42,3.53,3.16,3.53ZM567.59,426.63c0-2.42-1.69-4.38-3.77-4.38s-3.77,1.96-3.77,4.38,1.69,4.38,3.77,4.38,3.77-1.96,3.77-4.38ZM573.81,429.99c-2.17,0-3.92,2.18-3.92,4.87s1.76,4.86,3.92,4.86c2.17,0,3.92-2.18,3.92-4.87s-1.76-4.86-3.92-4.86ZM569.29,449.72c-2.96,0-5.35,2.78-5.35,6.2s2.4,6.2,5.35,6.2,5.35-2.78,5.35-6.2-2.4-6.2-5.35-6.2ZM577.08,449.12c0,1.68,1.14,3.04,2.56,3.04s2.55-1.36,2.55-3.04-1.14-3.04-2.55-3.04-2.56,1.36-2.56,3.04ZM577.93,465.77c1.95,0,3.53-1.69,3.53-3.77s-1.58-3.77-3.53-3.77-3.53,1.69-3.53,3.77,1.58,3.77,3.53,3.77ZM577.69,472.82c-1.55,0-2.8,1.36-2.8,3.04s1.25,3.04,2.8,3.04,2.8-1.36,2.8-3.04-1.25-3.04-2.8-3.04ZM587.78,471.97c0-2.22-1.69-4.01-3.77-4.01s-3.77,1.8-3.77,4.01,1.69,4.01,3.77,4.01,3.77-1.8,3.77-4.01ZM585.47,481.57c-1.68,0-3.04,1.69-3.04,3.77s1.36,3.77,3.04,3.77,3.04-1.69,3.04-3.77-1.36-3.77-3.04-3.77Z"/>
        </g>
        <g id="Shape_1" data-name="Shape 1" class="cls-14">
          <path class="cls-12" d="M514.54,325.97c-7.79,1.82-17.52,6.44-39.66.97-5.27-1.3-10.11-2.17-14.44-2.75-.3-.06-.59-.11-.89-.17-33.42-5.16-43.07,9.24-43.07,9.24,0,0,22.75-16.78,61.81-1.7.13.02.25.03.37.05,3.84,1.43,7.76,2.56,13.26,2.86,17.64.97,26.04-11.79,40.39-4.38,14.36,7.42,21.17,28.93,21.17,28.93,0,0,.36-3.16-7.3-18.23-8.27-16.65-23.85-16.65-31.63-14.83ZM601.19,504.01c.17.36.22.41.22.41,0,0-.08-.15-.22-.41ZM578.78,376.79c-11.92-33.19-35.53-42.3-35.53-42.3,0,0,.24.73,4.14,5.35,42.83,33.06,31.15,77.8,36.26,109.4,4.72,29.22,15.89,51.56,17.55,54.77-.59-1.28-2.65-6.44-9.27-27.06-13.14-47.65-1.22-66.98-13.14-100.17Z"/>
        </g>
      </g>
      <g id="Ellipse_4_copy" data-name="Ellipse 4 copy">
        <path class="cls-3" d="M452.16,337.68c-1.23-1.83-4.64-1.45-6.71-.14-1.84,1.16-2.6,2.9-2,4.11.58,1.17,2.49,1.94,5,1.2,2.77-.81,4.96-3.32,3.71-5.17ZM417.38,333.35c-1.83.54-3.14,2.68-3.57,3.84-.45,1.2-.42,2.37.09,2.94.51.57,2.03.85,3.89-1.34,2.24-2.64,2.17-6.21-.41-5.44Z"/>
      </g>
      <g id="Ellipse_3" data-name="Ellipse 3">
        <path class="cls-3" d="M524.24,337.6c-10.14.05-17.3,9.89-16.34,20.56.01.12.03.23.05.35-.01-.33-.04-.65-.04-.98.09-9.92,7.43-17.65,16.4-17.27,8.97.38,16.18,8.73,16.09,18.65-.05,5.43-2.28,10.2-5.75,13.34,3.88-3.1,6.58-8.08,6.88-14.12.52-10.68-7.07-20.58-17.29-20.53Z"/>
      </g>
      <g id="Ellipse_3_copy_2" data-name="Ellipse 3 copy 2">
        <path class="cls-11" d="M539.75,358.54c-.5-9.51-7.89-17.23-16.5-17.25-8.61-.02-15.19,7.67-14.68,17.18.5,9.51,7.89,17.23,16.5,17.25,8.61.02,15.19-7.67,14.68-17.18Z"/>
      </g>
      <g id="Ellipse_3_copy" data-name="Ellipse 3 copy">
        <path class="cls-9" d="M539.75,358.54c-.5-9.51-7.89-17.23-16.5-17.25-8.61-.02-15.19,7.67-14.68,17.18.5,9.51,7.89,17.23,16.5,17.25,8.61.02,15.19-7.67,14.68-17.18Z"/>
      </g>
      <g id="Ellipse_2" data-name="Ellipse 2">
        <ellipse class="cls-5" cx="522.69" cy="358.92" rx="12.04" ry="12.03"/>
      </g>
      <g id="Ellipse_1" data-name="Ellipse 1">
        <circle class="cls-2" cx="518.56" cy="353.57" r="3.77"/>
      </g>
      <g id="L-2" data-name="L">
        <path class="cls-3" d="M600.75,506.19l.9-.55s.09-.36.11-.72c1.03-2.2.03-4.03-2.79-11.19-2.92-7.42-13.14-32.46-13.14-59.32s3.65-42.79-14.11-75.61c-10.65-18.06-26.16-25.06-29.68-26.46-8.87-10.12-16.57-10.49-32.61-7.09-17.76,3.77-30.05,1.7-48.91-2.67-18.86-4.38-32.9.1-41.12,7.05,0,0,13.75-10.7,41.12-5.35,27.37,5.35,32.48,6.93,48.42,3.16,15.94-3.77,25.43-2.92,34.07,8.75,8.64,11.67,10.58,22.97,12.17,32.34,0,.12,0-18.96-10.22-32.58-.43-.57-.85-1.11-1.27-1.64,3.95,1.87,24.46,12.84,35.09,42.97,6.08,17.03,6.08,39.14,6.33,58.59.24,19.45,5.47,37.44,9,49.11,3.53,11.67,7.54,17.87,6.81,19.21-.15.27-.47.6-.88.96-1.96,1.28-6.58,3.22-8.24,3.9-3-12.44-6.41-27.73-7.67-37.68-2.43-19.21-7.54-55.19-7.54-55.19,0,0,.97,40.6,8.52,72.45,7.54,31.85,9.25,37.44,9.25,37.44,0,0-8.74-1.56-19.12-1.26-4.67-.38-9.95-.57-13.98-.2-4.41-22.45-10.71-86.55-10.71-86.55l7.79,89.23-20.44,5.35s.73-18.96,2.19-42.79c1.46-23.83-4.62-44.73-4.62-44.73,0,0,.95,4.66,1.62,13.93-1.27.86-3.66,2.42-4.54,2.6-1.22.24,2.07-7.05,1.22-17.5-.85-10.45-2.07-8.14-8.03-14.83-5.96-6.69-8.64-15.2-10.22-23.83-1.58-8.63-2.55-8.14-6.33-11.43-3.77-3.28-4.26-8.02-3.16-12.4.24-1.95,0-2.19,0-2.19,0,0-.49,7.42-12.9,7.29-12.41-.12-24.09-13.86-46.72-21.88-22.63-8.02-46.48-2.67-46.48-2.67,0,0,1.46-17.5,19.22-32.34-21.28,14.59-21.17,34.52-21.17,34.52,0,0,27.5-5.71,54.99,5.83,27.5,11.55,32.36,18.96,43.07,17.99,6.36-.98,7.79-2.92,7.79-2.92,0,0-1.1,7.54,6.81,12.64,4.01,2.55,2.43,12.03,7.3,23.1,4.87,11.06,12.65,16.05,12.65,16.05,0,0,3.16,9.72,1.46,17.75-1.7,8.02-2.68,8.51-2.68,8.51,0,0,3.89-.73,5.84-1.94.86-.54,1.48-1.17,1.9-1.71.43,6.21.72,14.4.53,24.56-.49,26.01-4.38,53.49-4.38,53.49,0,0,1.22-1.22,9.98-4.38,8.76-3.16,18.61-3.4,18.98-4.38-.13-.49-.26-1.04-.4-1.63,1.13.54,11.99-1.54,21.56-.76,1.41.18,2.72.41,3.9.69,9.25,2.19,9.73,2.43,9.73,2.43,0,0-2.12-7.93-4.67-18.41l6.9-4.2c.55-.26,1.07-.56,1.5-.91Z"/>
      </g>
    </g>
    <g id="NosaKids">
      <text class="cls-17" transform="translate(79.65 688)"><tspan class="cls-15" x="0" y="0">Nosa</tspan><tspan class="cls-19" x="486.38" y="0">Kids</tspan></text>
    </g>
  </g>
</svg>